<svg width="25" height="29" viewBox="0 0 25 29" fill="none" xmlns="http://www.w3.org/2000/svg">
<path d="M1.26524 11.1756L1.23436 11.199L0 28.5625L14.9669 19.4568L1.26524 11.1756Z" fill="#8BACFF"/>
<path d="M14.4803 19.4406C13.5786 19.852 10.6905 19.1309 7.10455 16.9543C5.30057 15.8711 3.71833 14.6337 2.67319 13.5219C1.57579 12.3545 1.39501 11.6162 1.54431 11.3628C1.59011 11.2889 1.646 11.2369 1.74406 11.2187C2.64575 10.8073 5.53381 11.5283 9.11978 13.7049C13.1833 16.1667 15.0922 18.6318 14.658 19.3065C14.6241 19.3485 14.5463 19.4105 14.4803 19.4406Z" fill="#05124A"/>
<path d="M1.90728 11.5149C2.58905 11.2038 5.29835 11.7681 8.92649 13.9784C12.9799 16.4183 14.4534 18.632 14.3509 19.1024L14.307 19.1225C13.6252 19.4335 10.9159 18.8692 7.28775 16.6589C3.25629 14.209 1.7608 12.0053 1.87339 11.5568L1.91737 11.5367L1.90728 11.5149ZM1.60464 10.8586C1.47268 10.9189 1.33891 11.0328 1.25922 11.1486C1.24404 11.1734 1.23059 11.1991 1.21883 11.2256C0.724754 12.3413 3.23247 15.0018 6.92135 17.2497C10.2525 19.2778 13.4559 20.2786 14.6215 19.7468C14.7755 19.6766 14.8872 19.5726 14.9669 19.4568C15.62 18.391 13.0814 15.6571 9.3048 13.3557C5.95167 11.3377 2.74824 10.3369 1.60464 10.8586Z" fill="#366AE5"/>
<path d="M12.2028 19.2353L9.63632 18.2881L0.000373683 28.5624L14.9669 19.4568L12.2028 19.2353Z" fill="#7199FB"/>
<path d="M8.41228 23.4448L11.1839 21.7583C7.08245 21.0614 3.3936 18.8142 0.929044 15.4905L0.697533 18.7519C2.82172 20.9335 5.4875 22.5287 8.41228 23.4448Z" fill="#4276F1"/>
<path d="M3.20423 23.4468C2.23898 22.8545 1.34906 22.1792 0.509314 21.3973L0.307315 24.2365C0.845422 24.6529 1.40751 25.0343 1.99142 25.3769C2.54325 25.7076 3.13319 26.0354 3.73082 26.2923L6.14236 24.8253C5.12587 24.4683 4.1273 24.0053 3.20423 23.4468Z" fill="#4276F1"/>
<path d="M8.28326 17.3168L9.94621 18.7291C9.94621 18.7291 13.7144 14.5476 18.3606 16.4257L18.7258 12.0228C18.7258 12.0228 12.9977 11.7238 8.28326 17.3168Z" fill="url(#paint0_linear_1_14)"/>
<path d="M13.5465 8.29616L15.4532 9.54439C15.4532 9.54439 20.2733 7.87473 21.1329 1.65764L16.8433 0.4375C16.8433 0.4375 18.4211 5.01302 13.5465 8.29616Z" fill="url(#paint1_linear_1_14)"/>
<path d="M5.86408 13.1361C5.86408 13.1361 9.70129 11.4602 7.17176 4.8889L11.3214 3.61865C11.3214 3.61865 13.4851 10.1574 7.76996 14.335L5.86408 13.1361Z" fill="url(#paint2_linear_1_14)"/>
<path d="M14.3509 19.1024L14.3289 19.1125C13.6472 19.4235 10.9379 18.8592 7.30974 16.6489C3.43687 14.312 1.91758 12.1721 1.87157 11.6106L1.21845 11.2254C0.671667 12.3486 3.17498 15.014 6.90944 17.2816C10.2406 19.3097 13.444 20.3105 14.6096 19.7787C14.7416 19.7185 14.8872 19.5726 14.9669 19.4568L14.3509 19.1024Z" fill="#366AE5"/>
<path d="M4.20641 4.68973L5.11339 5.33808C5.11339 5.33808 5.11339 5.33808 5.13138 5.3277C5.14937 5.31733 5.13138 5.3277 5.14937 5.31732L5.03384 4.21235C5.03384 4.21235 5.03384 4.21235 5.0414 4.18408L5.69325 3.28197C5.69325 3.28197 5.69325 3.28197 5.68281 3.26408C5.68281 3.26408 5.68281 3.26408 5.67238 3.24619L4.56144 3.36109C4.56144 3.36109 4.56144 3.36109 4.54345 3.37147L3.63646 2.72312C3.63646 2.72312 3.63646 2.72312 3.61847 2.7335C3.60049 2.74388 3.61848 2.7335 3.60049 2.74388L3.71602 3.84885C3.71602 3.84885 3.71601 3.84885 3.69803 3.85923L3.04617 4.76134C3.04617 4.76134 3.04617 4.76134 3.05661 4.77923C3.05661 4.77923 3.05661 4.77923 3.06704 4.79712L4.20641 4.68973C4.17798 4.68222 4.17798 4.68222 4.20641 4.68973Z" fill="#E2B4FF"/>
<path d="M2.83288 8.88581L2.93646 9.57408C2.93646 9.57408 2.93645 9.57408 2.949 9.57758C2.96154 9.58107 2.949 9.57758 2.96154 9.58107L3.40984 9.04675C3.40984 9.04675 3.40984 9.04675 3.4259 9.03778L4.11789 8.93476C4.11789 8.93476 4.11789 8.93475 4.1214 8.92228C4.1214 8.92228 4.1214 8.92228 4.12492 8.9098L3.58771 8.46391C3.58771 8.46391 3.58771 8.46391 3.57517 8.46041L3.47159 7.77215C3.47159 7.77215 3.47159 7.77215 3.45905 7.76865C3.4465 7.76515 3.45905 7.76865 3.44651 7.76515L2.9982 8.29947C2.9982 8.29947 2.9982 8.29947 2.98566 8.29597L2.29368 8.399C2.29368 8.399 2.29368 8.399 2.29016 8.41147C2.29016 8.41147 2.29016 8.41147 2.28664 8.42395L2.83288 8.88581C2.82385 8.86984 2.82385 8.86984 2.83288 8.88581Z" fill="#AD65F6"/>
<path d="M21.5689 12.3674L21.8267 13.6823C21.8267 13.6823 21.8267 13.6823 21.851 13.6878C21.8753 13.6934 21.851 13.6878 21.8753 13.6934L22.6865 12.624C22.6865 12.624 22.6865 12.624 22.7164 12.6052L24.031 12.3433C24.031 12.3433 24.031 12.3433 24.0367 12.319C24.0367 12.319 24.0367 12.319 24.0423 12.2946L22.9762 11.486C22.9762 11.486 22.9762 11.486 22.9519 11.4805L22.6941 10.1656C22.6941 10.1656 22.6941 10.1656 22.6698 10.16C22.6455 10.1544 22.6698 10.16 22.6455 10.1544L21.8344 11.2239C21.8344 11.2239 21.8344 11.2239 21.8101 11.2183L20.4954 11.4802C20.4954 11.4802 20.4954 11.4802 20.4898 11.5045C20.4898 11.5045 20.4898 11.5045 20.4841 11.5289L21.5689 12.3674C21.5503 12.3375 21.5503 12.3375 21.5689 12.3674Z" fill="#8A22F2"/>
<path d="M18.8319 10.4333L19.3361 10.6577C19.3361 10.6577 19.3361 10.6577 19.3437 10.6509C19.3514 10.6441 19.3437 10.6509 19.3514 10.6441L19.1822 10.1211C19.1822 10.1211 19.1822 10.1211 19.183 10.1067L19.405 9.60633C19.405 9.60633 19.405 9.60633 19.3981 9.5987C19.3981 9.5987 19.3981 9.5987 19.3912 9.59107L18.8669 9.75586C18.8669 9.75586 18.8669 9.75586 18.8593 9.76265L18.3551 9.53826C18.3551 9.53826 18.3551 9.53826 18.3474 9.54504C18.3398 9.55183 18.3474 9.54504 18.3398 9.55183L18.509 10.0749C18.509 10.0749 18.509 10.0749 18.5014 10.0817L18.2794 10.582C18.2794 10.582 18.2794 10.582 18.2862 10.5896C18.2862 10.5896 18.2862 10.5896 18.2931 10.5973L18.8319 10.4333C18.8174 10.4325 18.8174 10.4325 18.8319 10.4333Z" fill="#E2B4FF"/>
<defs>
<linearGradient id="paint0_linear_1_14" x1="0.850227" y1="16.6973" x2="24.8866" y2="14.8757" gradientUnits="userSpaceOnUse">
<stop stop-color="#B78EB1"/>
<stop offset="0.207184" stop-color="#FFBAF5"/>
<stop offset="0.360543" stop-color="#FFC9F7"/>
<stop offset="0.563618" stop-color="#FFD6F9"/>
<stop offset="0.709148" stop-color="#FFDBFA"/>
</linearGradient>
<linearGradient id="paint1_linear_1_14" x1="1.20807" y1="36.5422" x2="23.619" y2="16.9744" gradientUnits="userSpaceOnUse">
<stop offset="0.2" stop-color="#FFBAF5"/>
<stop offset="0.41" stop-color="#FFCCF8"/>
<stop offset="0.63" stop-color="#FFDBFA"/>
</linearGradient>
<linearGradient id="paint2_linear_1_14" x1="-1.63818" y1="34.7801" x2="22.4805" y2="8.68668" gradientUnits="userSpaceOnUse">
<stop offset="0.2" stop-color="#FFBAF5"/>
<stop offset="0.45" stop-color="#FFCCF8"/>
<stop offset="0.71" stop-color="#FFDBFA"/>
</linearGradient>
</defs>
</svg>